<svg width="1130" height="197" viewBox="0 0 1130 197" fill="none" xmlns="http://www.w3.org/2000/svg">
<path d="M1130 98C1130 122.853 1109.85 143 1085 143L45 143C20.1472 143 1.76132e-06 122.853 3.93402e-06 98C6.10672e-06 73.1472 20.1472 53 45 53L1085 53.0001C1109.85 53.0001 1130 73.1473 1130 98Z" fill="url(#paint0_linear_197_879)"/>
<path d="M389.83 98.5L371.746 7.8877C371.233 5.5791 370.079 3.68733 368.283 2.2124C366.488 0.737473 364.436 0 362.127 0H361.935C359.626 0 357.574 0.705399 355.778 2.11621C353.983 3.52702 352.828 5.38672 352.315 7.69531L322.688 140.824L302.681 47.1338C302.168 44.9534 301.045 43.1258 299.314 41.6509C297.583 40.1759 295.562 39.4385 293.254 39.4385C291.074 39.3102 289.054 39.9194 287.194 41.2661C285.334 42.6128 284.084 44.3763 283.442 46.5566L265.743 111.582L263.242 96.7686C262.857 94.46 261.735 92.5361 259.875 90.9971C258.016 89.458 255.932 88.6885 253.623 88.6885H234V108.312H245.351L253.815 159.101C254.2 161.409 255.258 163.333 256.99 164.872C258.721 166.411 260.741 167.245 263.05 167.373C265.23 167.501 267.282 166.892 269.206 165.545C271.13 164.199 272.412 162.435 273.054 160.255L291.907 90.8047L312.877 189.305C313.39 191.485 314.576 193.313 316.436 194.788C318.296 196.263 320.38 197 322.688 197C324.997 197 327.049 196.263 328.845 194.788C330.64 193.313 331.795 191.485 332.308 189.305L361.55 57.5225L372.131 110.235C372.516 112.544 373.638 114.436 375.498 115.911C377.357 117.386 379.441 118.123 381.75 118.123H431V98.5H389.83Z" fill="white"/>
<defs>
<linearGradient id="paint0_linear_197_879" x1="1114.99" y1="108.788" x2="330.874" y2="-189.567" gradientUnits="userSpaceOnUse">
<stop stop-color="#052C64"/>
<stop offset="1" stop-color="#2A73DD" stop-opacity="0"/>
</linearGradient>
</defs>
</svg>