<svg width="348" height="94" viewBox="0 0 348 94" fill="none" xmlns="http://www.w3.org/2000/svg">
<g clip-path="url(#clip0_197_1066)">
<path d="M120.997 63.184C121.104 69.4899 117.255 75.8665 108.52 75.8665H98.7168V50.929H108.52C117.076 50.929 120.89 57.0211 120.997 63.184ZM103.388 71.3409H108.522C114.19 71.3409 116.436 67.2082 116.329 63.1479C116.222 59.265 113.94 55.3822 108.522 55.3822H103.388V71.3426V71.3409Z" fill="white"/>
<path d="M143.241 75.8665H124.562V50.929H143.241V55.4891H129.231V61.2245H142.741V65.6071H129.231V71.2357H143.241V75.8665Z" fill="white"/>
<path d="M176.426 75.9734H171.543L161.17 50.929H166.445L173.967 70.3448L181.524 50.929H186.799L176.426 75.9734Z" fill="white"/>
<path d="M190.257 75.8665V50.929H194.927V75.8665H190.257Z" fill="white"/>
<path d="M204.587 50.929V71.5201H217.421V75.8665H199.883V50.929H204.587Z" fill="white"/>
<path d="M225.976 50.929V71.5201H238.809V75.8665H221.271V50.929H225.976Z" fill="white"/>
<path d="M261.265 75.8665H242.586V50.929H261.265V55.4891H247.256V61.2245H260.765V65.6071H247.256V71.2357H261.265V75.8665Z" fill="white"/>
<path d="M286.752 65.2142C286.752 71.6631 282.653 76.3646 275.773 76.3646C269.392 76.3646 264.829 72.5524 264.829 65.4985H269.463C269.463 69.7726 271.53 71.9458 275.773 71.9458C280.015 71.9458 282.046 68.9885 282.046 65.2125V55.3082H274.524V50.9272H286.751V65.2125L286.752 65.2142Z" fill="white"/>
<path d="M313.595 50.9634V65.2486C313.595 72.6231 309.068 76.399 302.793 76.399C296.518 76.399 291.708 72.7661 291.708 65.2486V50.9634H296.378V65.2486C296.378 69.7381 298.944 72.125 302.829 72.125C306.714 72.125 308.925 69.5244 308.925 65.2486V50.9634H313.595Z" fill="white"/>
<path d="M318.764 75.8665V50.929H323.434V75.8665H318.764Z" fill="white"/>
<path d="M328.388 75.8665V50.9651H346.319V55.489H333.094V62.293H345.607V66.6394H333.094V75.8665H328.389H328.388Z" fill="white"/>
<path d="M118.791 38.4715H105.879L103.762 43.1253H98.7168L109.795 18.4458H114.875L125.953 43.1253H120.874L118.793 38.4715H118.791ZM112.337 23.6289L107.751 34.1349H116.923L112.337 23.6289Z" fill="white"/>
<path d="M149.202 25.2517L141.159 35.9697H140.241L132.374 25.2155V43.1617H127.717V18.4822H133.079L140.805 29.095L148.531 18.4822H153.859V43.1617H149.202V25.2517Z" fill="white"/>
<path d="M178.309 25.6032C178.309 27.5068 177.391 29.3398 175.098 30.3622C177.991 31.2434 179.049 34.3108 179.049 35.8626C179.049 41.363 174.922 43.1253 169.806 43.1253H158.093V18.4458H169.806C174.675 18.4458 178.309 20.6322 178.309 25.6032ZM162.679 28.3534H169.804C172.732 28.3534 173.685 27.1189 173.685 25.7084C173.685 24.5807 172.767 22.6755 169.804 22.6755H162.679V28.3518V28.3534ZM162.679 38.7887H169.804C171.709 38.7887 174.427 38.1542 174.427 35.8265C174.427 33.4988 171.711 32.4417 169.804 32.4417H162.679V38.7887Z" fill="white"/>
<path d="M203.992 18.4822V32.6195C203.992 39.9183 199.511 43.6548 193.302 43.6548C187.092 43.6548 182.33 40.058 182.33 32.6195V18.4822H186.952V32.6195C186.952 37.0629 189.492 39.4235 193.338 39.4235C197.184 39.4235 199.371 36.8492 199.371 32.6195V18.4822H203.993H203.992Z" fill="white"/>
<path d="M213.199 18.4458V38.8249H225.899V43.1269H208.542V18.4458H213.199Z" fill="white"/>
<path d="M246.715 38.4715H233.803L231.686 43.1253H226.641L237.719 18.4458H242.798L253.877 43.1253H248.797L246.715 38.4715ZM240.259 23.6289L235.673 34.1349H244.845L240.259 23.6289Z" fill="white"/>
<path d="M272.221 18.4113H276.878V43.127H273.985V43.1615L261.001 26.4844V43.1253H256.345V18.4458H260.12L272.221 33.747V18.4097V18.4113Z" fill="white"/>
<path d="M302.914 40.0233C300.375 42.5269 297.093 43.6908 293.53 43.6908C284.358 43.6908 280.476 37.3799 280.442 30.9623C280.405 24.5101 284.605 17.9526 293.53 17.9526C296.881 17.9526 300.057 19.2217 302.597 21.7253L299.491 24.7221C297.869 23.1358 295.682 22.396 293.528 22.396C287.566 22.396 284.991 26.8378 285.026 30.9639C285.062 35.0539 287.426 39.3197 293.528 39.3197C295.68 39.3197 298.114 38.4386 299.738 36.8161L302.913 40.0249L302.914 40.0233Z" fill="white"/>
<path d="M323.94 43.1269H305.453V18.4458H323.94V22.9582H310.075V28.6345H323.447V32.9711H310.075V38.5422H323.94V43.1253V43.1269Z" fill="white"/>
<path d="M343.519 24.405C342.672 22.9945 340.345 21.6548 337.663 21.6548C334.206 21.6548 332.548 23.0997 332.548 24.9343C332.548 27.0845 335.087 27.6845 338.052 28.0379C343.202 28.6725 348 30.0122 348 35.9006C348 41.401 343.131 43.7632 337.627 43.7632C332.582 43.7632 328.702 42.2114 326.866 37.699L330.747 35.6901C331.84 38.4042 334.698 39.6042 337.696 39.6042C340.695 39.6042 343.376 38.5817 343.376 35.9022C343.376 33.5745 340.942 32.6227 337.662 32.2709C332.617 31.6709 327.96 30.3311 327.96 24.7962C327.96 19.7199 332.969 17.6388 337.52 17.6042C341.366 17.6042 345.352 18.6974 347.222 22.5046L343.518 24.4082L343.519 24.405Z" fill="white"/>
<path d="M52.4953 2.13046C57.8084 2.13046 62.9026 3.05432 67.6334 4.74751C61.4074 1.70799 54.4117 0 47.0145 0C21.4166 0 0.595454 20.4416 0 45.8805H7.6126C8.20641 21.6169 28.0735 2.13046 52.4953 2.13046Z" fill="white"/>
<path d="M7.6126 48.1179H0C0.595454 73.5585 21.4166 93.9984 47.0145 93.9984C54.41 93.9984 61.4058 92.2905 67.6317 89.2509C62.9026 90.9441 57.8067 91.868 52.4937 91.868C28.0719 91.868 8.20476 72.3815 7.61095 48.1179H7.6126Z" fill="white"/>
<path d="M66.3534 47.6477L66.2892 47.6099H58.2193C57.9002 47.6099 57.6058 47.4406 57.4462 47.1661L55.2355 43.3802L50.5442 55.1027C50.5196 55.1652 50.4817 55.2178 50.4439 55.272C50.2909 55.4939 50.0508 55.6337 49.781 55.655C49.758 55.6567 49.7366 55.6649 49.7136 55.6649C49.6856 55.6649 49.6593 55.6649 49.6313 55.6616C49.2365 55.6255 48.9125 55.3345 48.8352 54.9465L45.3365 37.4623L44.7756 34.6611L44.0452 38.207L42.2556 46.8981C42.1832 47.2483 41.9085 47.5228 41.5581 47.5951C41.2061 47.6658 40.8475 47.5228 40.6436 47.2269L37.1515 42.1851L36.9162 41.8465L36.6465 42.4761L34.6825 47.0691C34.541 47.3979 34.217 47.6116 33.8584 47.6116H27.7426L27.6554 47.6625L15.5967 54.6194L24.1123 69.36L38.5003 61.0585V77.6616L55.4724 77.7717V61.0552L69.8636 69.4126L78.4335 54.6194L66.3534 47.6494V47.6477Z" fill="white"/>
<path d="M69.9179 24.3836L55.5299 32.6852V16.0821L38.5578 15.9719V32.6885L24.1666 24.331L15.5967 39.1242L27.2014 45.8214H33.2662L34.059 43.9671L35.9046 39.6536C36.0329 39.3544 36.3142 39.1473 36.6382 39.1144C36.9623 39.0815 37.2781 39.2278 37.464 39.4958L38.7042 41.2876L40.9216 44.4882L41.9694 39.4037L43.9103 29.981C43.9959 29.5651 44.3627 29.2659 44.7871 29.2659H44.7904C45.2164 29.2659 45.5816 29.5684 45.6655 29.986L46.9732 36.5171L49.9998 51.644L54.2535 41.0163C54.2913 40.9194 54.3505 40.8372 54.4163 40.7615C54.5693 40.5889 54.7815 40.4739 55.0184 40.4558C55.3556 40.4311 55.6845 40.6021 55.8573 40.898L56.4708 41.9484L58.7325 45.8247H66.8238L66.8682 45.7984L78.4302 39.1275L69.9146 24.3869L69.9179 24.3836Z" fill="white"/>
</g>
<defs>
<clipPath id="clip0_197_1066">
<rect width="348" height="94" fill="white"/>
</clipPath>
</defs>
</svg>
