<svg width="80" height="85" viewBox="0 0 80 85" fill="none" xmlns="http://www.w3.org/2000/svg">
<g clip-path="url(#clip0_197_1019)">
<path d="M46.1225 3.51321C60.2771 3.51321 72.6574 11.0728 79.4512 22.3648C72.3574 9.06058 58.3345 0 42.1859 0C18.8887 0 0 18.8552 0 42.1111H7.27672C7.37184 20.7762 24.724 3.50956 46.1188 3.50956L46.1225 3.51321Z" fill="white"/>
<path d="M46.122 81.1216C25.1333 81.1216 8.04086 64.5927 7.30916 43.7764H0.00683594C0.456829 66.0535 19.1663 85 42.1855 85C58.762 85 73.0996 75.1433 79.9995 61.3132C73.3447 73.131 60.6681 81.1216 46.1183 81.1216H46.122Z" fill="white"/>
<path d="M63.2959 60.4734L51.5375 53.6515V67.2953L37.6719 67.204L37.6682 53.6551L25.9135 60.4295L18.9551 48.3999L44.6303 33.6021L70.2982 48.3999L63.2959 60.4734Z" fill="white"/>
<path opacity="0.9" d="M25.9574 23.6796L37.7158 30.5015V16.8577L51.5851 16.9453V30.4978L63.3398 23.7234L70.2982 35.753L44.6266 50.5472L18.9551 35.753L25.9574 23.6796Z" fill="white"/>
</g>
<defs>
<clipPath id="clip0_197_1019">
<rect width="80" height="85" fill="white"/>
</clipPath>
</defs>
</svg>
