<svg width="473" height="128" viewBox="0 0 473 128" fill="none" xmlns="http://www.w3.org/2000/svg">
<g clip-path="url(#clip0_197_1027)">
<path d="M164.459 86.0376C164.604 94.6244 159.373 103.307 147.501 103.307H134.176V69.3499H147.501C159.129 69.3499 164.314 77.6456 164.459 86.0376ZM140.525 97.1449H147.503C155.207 97.1449 158.259 91.5174 158.114 85.9884C157.969 80.7011 154.868 75.4139 147.503 75.4139H140.525V97.1471V97.1449Z" fill="#3367B3"/>
<path d="M194.693 103.307H169.304V69.3499H194.693V75.5594H175.651V83.3694H194.013V89.3371H175.651V97.0016H194.693V103.307Z" fill="#3367B3"/>
<path d="M239.799 103.453H233.161L219.062 69.3499H226.233L236.457 95.7884L246.728 69.3499H253.898L239.799 103.453Z" fill="#3367B3"/>
<path d="M258.597 103.307V69.3499H264.944V103.307H258.597Z" fill="#3367B3"/>
<path d="M278.075 69.3499V97.3889H295.518V103.307H271.681V69.3499H278.075Z" fill="#3367B3"/>
<path d="M307.146 69.3499V97.3889H324.589V103.307H300.752V69.3499H307.146Z" fill="#3367B3"/>
<path d="M355.112 103.307H329.723V69.3499H355.112V75.5594H336.07V83.3694H354.432V89.3371H336.07V97.0016H355.112V103.307Z" fill="#3367B3"/>
<path d="M389.752 88.8022C389.752 97.5837 384.181 103.986 374.828 103.986C366.156 103.986 359.954 98.7947 359.954 89.1894H366.252C366.252 95.0094 369.063 97.9687 374.828 97.9687C380.594 97.9687 383.356 93.9417 383.356 88.7999V75.3132H373.132V69.3477H389.75V88.7999L389.752 88.8022Z" fill="#3367B3"/>
<path d="M426.237 69.397V88.8493C426.237 98.891 420.084 104.033 411.555 104.033C403.026 104.033 396.488 99.0858 396.488 88.8493V69.397H402.836V88.8493C402.836 94.9625 406.323 98.2128 411.604 98.2128C416.885 98.2128 419.89 94.6715 419.89 88.8493V69.397H426.237Z" fill="#3367B3"/>
<path d="M433.262 103.307V69.3499H439.609V103.307H433.262Z" fill="#3367B3"/>
<path d="M446.344 103.307V69.3992H470.716V75.5594H452.74V84.8244H469.747V90.743H452.74V103.307H446.346H446.344Z" fill="#3367B3"/>
<path d="M161.461 52.3867H143.91L141.033 58.7238H134.176L149.233 25.1177H156.137L171.195 58.7238H164.291L161.463 52.3867H161.461ZM152.688 32.1756L146.454 46.4816H158.921L152.688 32.1756Z" fill="#00ADEE"/>
<path d="M202.795 34.385L191.862 48.9798H190.615L179.921 34.3358V58.7731H173.592V25.167H180.88L191.382 39.6185L201.883 25.167H209.124V58.7731H202.795V34.385Z" fill="#00ADEE"/>
<path d="M242.356 34.864C242.356 37.4561 241.109 39.952 237.992 41.3443C241.925 42.5441 243.362 46.7211 243.362 48.8342C243.362 56.3241 237.753 58.7238 230.8 58.7238H214.879V25.1177H230.8C237.417 25.1177 242.356 28.0948 242.356 34.864ZM221.112 38.6089H230.797C234.777 38.6089 236.072 36.9278 236.072 35.0072C236.072 33.4716 234.824 30.8773 230.797 30.8773H221.112V38.6067V38.6089ZM221.112 52.8187H230.797C233.386 52.8187 237.08 51.9547 237.08 48.785C237.08 45.6153 233.389 44.176 230.797 44.176H221.112V52.8187Z" fill="#00ADEE"/>
<path d="M277.266 25.167V44.4178C277.266 54.3566 271.176 59.4446 262.736 59.4446C254.296 59.4446 247.823 54.5469 247.823 44.4178V25.167H254.106V44.4178C254.106 50.4684 257.558 53.6828 262.785 53.6828C268.012 53.6828 270.986 50.1774 270.986 44.4178V25.167H277.268H277.266Z" fill="#00ADEE"/>
<path d="M289.779 25.1177V52.8679H307.041V58.726H283.449V25.1177H289.779Z" fill="#00ADEE"/>
<path d="M335.335 52.3867H317.784L314.907 58.7238H308.05L323.108 25.1177H330.011L345.069 58.7238H338.165L335.335 52.3867ZM326.56 32.1756L320.326 46.4816H332.793L326.56 32.1756Z" fill="#00ADEE"/>
<path d="M370.001 25.0708H376.331V58.7262H372.398V58.7732L354.751 36.064V58.7239H348.422V25.1179H353.553L370.001 45.9535V25.0686V25.0708Z" fill="#00ADEE"/>
<path d="M411.721 54.4999C408.269 57.9091 403.808 59.494 398.966 59.494C386.499 59.494 381.223 50.9005 381.176 42.1615C381.127 33.3755 386.835 24.4463 398.966 24.4463C403.52 24.4463 407.837 26.1744 411.289 29.5836L407.068 33.6643C404.864 31.5042 401.89 30.4969 398.964 30.4969C390.859 30.4969 387.36 36.5452 387.407 42.1638C387.456 47.7331 390.669 53.5419 398.964 53.5419C401.888 53.5419 405.197 52.3421 407.404 50.1327L411.719 54.5022L411.721 54.4999Z" fill="#00ADEE"/>
<path d="M440.297 58.726H415.17V25.1177H440.297V31.2623H421.452V38.9917H439.627V44.8968H421.452V52.4829H440.297V58.7238V58.726Z" fill="#00ADEE"/>
<path d="M466.91 33.2322C465.759 31.3116 462.595 29.4873 458.951 29.4873C454.251 29.4873 451.998 31.4549 451.998 33.953C451.998 36.8809 455.45 37.698 459.478 38.1792C466.479 39.0433 473 40.8676 473 48.8858C473 56.3757 466.382 59.5924 458.902 59.5924C452.045 59.5924 446.77 57.4793 444.275 51.3347L449.549 48.5993C451.036 52.295 454.92 53.9291 458.995 53.9291C463.071 53.9291 466.716 52.5368 466.716 48.8881C466.716 45.7184 463.407 44.4223 458.949 43.9433C452.092 43.1262 445.762 41.3019 445.762 33.765C445.762 26.8526 452.57 24.0187 458.756 23.9717C463.983 23.9717 469.401 25.4603 471.943 30.6445L466.908 33.2367L466.91 33.2322Z" fill="#00ADEE"/>
<path d="M71.3514 2.90105C78.5729 2.90105 85.497 4.15907 91.927 6.46469C83.4647 2.32577 73.9561 0 63.902 0C29.1094 0 0.809338 27.8353 0 62.4756H10.347C11.1541 29.4358 38.1574 2.90105 71.3514 2.90105Z" fill="#3367B3"/>
<path d="M10.347 65.5222H0C0.809338 100.165 29.1093 127.998 63.9019 127.998C73.9538 127.998 83.4624 125.672 91.9247 121.533C85.497 123.839 78.5706 125.097 71.3492 125.097C38.1552 125.097 11.1519 98.562 10.3448 65.5222H10.347Z" fill="#00ADEE"/>
<path d="M41.1885 64.8305H46.0177C46.5051 64.8305 46.9456 64.5395 47.1378 64.0918L49.8073 57.8375L50.174 56.9802L50.4937 57.4413L55.2402 64.3067C55.5174 64.7074 56.007 64.9044 56.4832 64.8081C56.9594 64.7096 57.3328 64.338 57.4312 63.859L59.8637 52.0242L60.8563 47.1959L61.6187 51.0102L66.3741 74.8185C66.4792 75.3468 66.9197 75.743 67.4562 75.7923C67.4942 75.7967 67.53 75.7967 67.568 75.7967C67.5993 75.7967 67.6284 75.7855 67.6597 75.7833C68.0264 75.7542 68.355 75.5639 68.5607 75.2617C68.6099 75.1879 68.6613 75.1162 68.6971 75.0312L75.0734 59.0687L78.0782 64.2239C78.2973 64.5977 78.6975 64.8283 79.129 64.8283H90.0976L90.1848 64.8797L90.8868 62.357L90.8264 62.3928H79.8288L76.7547 57.1145L75.9207 55.6841C75.686 55.2812 75.2389 55.0506 74.7805 55.082C74.4563 55.1066 74.1679 55.2633 73.9622 55.4983C73.8728 55.6013 73.7923 55.7132 73.7409 55.8453L67.9593 70.317L63.8455 49.7186L62.0681 40.8252C61.9541 40.2566 61.4577 39.847 60.8787 39.8447H60.8742C60.2974 39.8447 59.7988 40.2521 59.6826 40.8185L57.0444 53.6494L55.6202 60.5729L52.6064 56.2146L50.9207 53.7747C50.6681 53.4098 50.2366 53.2106 49.7984 53.2554C49.3579 53.3002 48.9756 53.58 48.8012 53.9896L46.2927 59.8633L45.2151 62.3883H37.001L37.589 64.8954L37.7075 64.826H41.1885V64.8305Z" fill="white"/>
<path d="M90.1875 64.8821L90.1003 64.8306H79.1317C78.698 64.8306 78.2978 64.6001 78.0809 64.2263L75.0761 59.0711L68.6998 75.0336C68.6662 75.1186 68.6148 75.1903 68.5634 75.2641C68.3555 75.5663 68.029 75.7566 67.6624 75.7857C67.6311 75.7879 67.602 75.7991 67.5707 75.7991C67.5327 75.7991 67.4969 75.7991 67.4589 75.7947C66.9224 75.7454 66.4819 75.3492 66.3768 74.8209L61.6214 51.0126L60.859 47.1982L59.8664 52.0266L57.4339 63.8614C57.3355 64.3382 56.9621 64.712 56.4859 64.8105C56.0075 64.9068 55.5201 64.712 55.2428 64.3091L50.4964 57.4437L50.1767 56.9826L49.81 57.8399L47.1405 64.0942C46.9482 64.5419 46.5078 64.8329 46.0204 64.8329H37.7079L37.5894 64.9023L21.1992 74.3755L32.7736 94.4478L52.3297 83.1435V105.752L75.398 105.902V83.1391L94.9585 94.5194L106.607 74.3755L90.1875 64.8844V64.8821Z" fill="#3367B3"/>
<path d="M95.0323 33.2033L75.4763 44.5075V21.899L52.4079 21.749V44.512L32.8474 33.1316L21.1992 53.2756L36.9724 62.3951H45.2155L46.2932 59.8701L48.8017 53.9964C48.9761 53.589 49.3584 53.3069 49.7988 53.2622C50.2393 53.2174 50.6685 53.4166 50.9212 53.7815L52.6069 56.2214L55.6207 60.5797L57.0448 53.6561L59.683 40.8252C59.7993 40.2589 60.2979 39.8515 60.8747 39.8515H60.8791C61.4582 39.8515 61.9545 40.2634 62.0686 40.832L63.846 49.7254L67.9597 70.3237L73.7414 55.8521C73.7928 55.72 73.8733 55.6081 73.9627 55.5051C74.1706 55.2701 74.459 55.1134 74.781 55.0887C75.2393 55.0552 75.6865 55.288 75.9212 55.6909L76.7551 57.1213L79.8293 62.3996H90.8269L90.8873 62.3638L106.602 53.2801L95.0279 33.2077L95.0323 33.2033Z" fill="#00ADEE"/>
</g>
<defs>
<clipPath id="clip0_197_1027">
<rect width="473" height="128" fill="white"/>
</clipPath>
</defs>
</svg>
